# xmcd CD database file
#
# Track frame offsets:
#	150
#	11016
#	22220
#	38150
#	51213
#	62936
#	77111
#	97868
#	111593
#	121772
#	135535
#	148129
#	162343
#
# Disc length: 2373 seconds
#
# Revision: 0
# Processed by: cddbd v1.5.2PL0 Copyright (c) Steve Scherf et al.
# Submitted via: CDex 1.70beta2
#
DISCID=b509430d
DTITLE=Hetten des - cowboys con cojones
DYEAR=2005
DGENRE=Country
TTITLE0=big river
TTITLE1=hallelujah
TTITLE2=i c u
TTITLE3=13
TTITLE4=solitary man
TTITLE5=drinkin about you
TTITLE6=the devil in miss jones
TTITLE7=ace of spades
TTITLE8=y.i.c.u.r.a.b.
TTITLE9=alone and forsaken
TTITLE10=goin home
TTITLE11=lost in reflection
TTITLE12=highstreet confidential
EXTD=YEAR: 2005
EXTT0=
EXTT1=
EXTT2=
EXTT3=
EXTT4=
EXTT5=
EXTT6=
EXTT7=
EXTT8=
EXTT9=
EXTT10=
EXTT11=
EXTT12=
PLAYORDER=
